<svg width="39" height="20" viewBox="0 0 39 20" fill="none" xmlns="http://www.w3.org/2000/svg">
<path d="M4.24222 10.2772C4.24222 7.06916 6.84992 4.46146 10.058 4.46146H17.5621V0.896973H10.058C4.88007 0.896973 0.677734 5.09931 0.677734 10.2772C0.677734 15.4551 4.88007 19.6574 10.058 19.6574H17.5621V16.0929H10.058C6.84992 16.0929 4.24222 13.4852 4.24222 10.2772ZM11.934 12.1532H26.9424V8.40115H11.934V12.1532ZM28.8184 0.896973H21.3142V4.46146H28.8184C32.0264 4.46146 34.6341 7.06916 34.6341 10.2772C34.6341 13.4852 32.0264 16.0929 28.8184 16.0929H21.3142V19.6574H28.8184C33.9963 19.6574 38.1986 15.4551 38.1986 10.2772C38.1986 5.09931 33.9963 0.896973 28.8184 0.896973Z" fill="white"/>
</svg>
