<svg width="29" height="26" viewBox="0 0 29 26" fill="none" xmlns="http://www.w3.org/2000/svg">
<path d="M21.8334 6.26408H16.2232V8.92896H21.8334C24.2318 8.92896 26.1814 10.8785 26.1814 13.2769C26.1814 15.2826 24.8069 16.9657 22.9415 17.4566L24.9892 19.5043C27.2754 18.3402 28.8463 16.0119 28.8463 13.2769C28.8463 9.40583 25.7045 6.26408 21.8334 6.26408ZM20.4309 11.8744H17.3593L20.1644 14.6795H20.4309V11.8744ZM0.794922 2.43507L5.15691 6.79706C2.60423 7.83496 0.794922 10.3456 0.794922 13.2769C0.794922 17.148 3.93667 20.2898 7.80776 20.2898H13.418V17.6249H7.80776C5.40937 17.6249 3.4598 15.6753 3.4598 13.2769C3.4598 11.0468 5.15691 9.20947 7.33089 8.97104L10.2342 11.8744H9.21033V14.6795H13.0393L16.2232 17.8633V20.2898H18.6496L24.2739 25.9L26.0411 24.1328L2.57618 0.653809L0.794922 2.43507Z" fill="#D9D9D9"/>
</svg>
