<svg width="20" height="20" viewBox="0 0 20 20" fill="none" xmlns="http://www.w3.org/2000/svg">
<path d="M2.63938 10.2772C2.63938 8.08064 3.60098 6.11032 5.10936 4.73392L7.35308 6.97764V1.32121H1.69664L3.77067 3.39523C1.9229 5.11101 0.753906 7.55271 0.753906 10.2772C0.753906 15.17 4.47772 19.1861 9.23855 19.6575V17.7531C5.52416 17.2912 2.63938 14.1142 2.63938 10.2772ZM19.6087 10.2772C19.6087 5.38441 15.8849 1.36834 11.124 0.896973V2.8013C14.8384 3.26325 17.7232 6.44028 17.7232 10.2772C17.7232 12.4738 16.7616 14.4441 15.2532 15.8205L13.0095 13.5768V19.2332H18.6659L16.5919 17.1592C18.4397 15.4434 19.6087 13.0017 19.6087 10.2772Z" fill="#D9D9D9"/>
</svg>
