<svg width="153" height="27" viewBox="0 0 153 27" fill="none" xmlns="http://www.w3.org/2000/svg">
<g clip-path="url(#clip0_93_461)">
<path d="M24.2292 15.4983C22.9993 18.1615 20.783 20.2888 18.0119 21.4655C18.0119 21.4655 13.3603 22.9573 12.3266 25.9409C11.2879 22.9573 6.63632 21.4655 6.63632 21.4655C3.87657 20.2829 1.67167 18.1564 0.449219 15.4983C5.10082 19.9737 11.8248 19.4764 11.8248 19.4764V0.575562L12.8585 2.56462V19.462C12.8585 19.462 19.5775 19.9737 24.2292 15.4983Z" fill="#E4F8EF"/>
<path d="M13.375 3.5592C14.2883 8.66166 14.2883 13.8768 13.375 18.9792C13.375 18.9792 16.4761 12.5148 24.2288 11.0182C24.2288 11.0182 18.0116 10.0236 13.375 3.5592Z" fill="#E4F8EF"/>
<path d="M33.7246 19.6401V6.22815H36.2928L42.4567 13.9139V6.22815H45.6907V19.6401H43.1416L36.9777 11.9544V19.6401H33.7246ZM46.5243 19.6401L52.8022 6.22815H55.5606L61.8385 19.6401H58.3381L57.1776 16.9197H51.1851L50.0246 19.6401H46.5243ZM54.1529 9.88076L52.3266 14.2373H56.0172L54.1908 9.88076H54.1529ZM65.8392 19.6401L59.7323 6.22815H63.461L67.3039 15.1504L71.1468 6.22815H74.7422L68.6167 19.6401H65.8392ZM72.6265 19.6401L78.9043 6.22815H81.6628L87.9409 19.6401H84.4403L83.28 16.9197H77.2873L76.1268 19.6401H72.6265ZM80.2551 9.88076L78.4287 14.2373H82.1195L80.2932 9.88076H80.2551ZM88.7531 19.6401V6.22815H92.2535V16.7294H98.2269V19.6401H88.7531Z" fill="#E4F8EF"/>
<path d="M99.8809 19.64V6.22806H106.33C107.852 6.22806 109.025 6.62123 109.849 7.40756C110.687 8.18121 111.105 9.25289 111.105 10.6226C111.105 11.9923 110.687 13.0704 109.849 13.8567C109.025 14.6303 107.852 15.0172 106.33 15.0172H103.381V19.64H99.8809ZM103.381 12.3348H105.721C107.091 12.3348 107.776 11.7641 107.776 10.6226C107.776 9.48117 107.091 8.91046 105.721 8.91046H103.381V12.3348ZM119.168 19.8493C117.811 19.8493 116.619 19.5639 115.592 18.9932C114.577 18.4098 113.784 17.5981 113.214 16.5581C112.643 15.5181 112.357 14.3069 112.357 12.9245C112.357 11.5294 112.636 10.3182 113.194 9.29094C113.765 8.25095 114.564 7.44561 115.592 6.87489C116.619 6.30418 117.811 6.0188 119.168 6.0188C120.525 6.0188 121.711 6.30418 122.725 6.87489C123.753 7.44561 124.552 8.25095 125.123 9.29094C125.693 10.3182 125.979 11.5294 125.979 12.9245C125.979 14.3069 125.693 15.5181 125.123 16.5581C124.552 17.5981 123.753 18.4098 122.725 18.9932C121.711 19.5639 120.525 19.8493 119.168 19.8493ZM119.168 16.9196C120.157 16.9196 120.931 16.5708 121.489 15.8732C122.06 15.163 122.345 14.1801 122.345 12.9245C122.345 11.6689 122.066 10.6924 121.508 9.99482C120.95 9.29728 120.17 8.94851 119.168 8.94851C118.166 8.94851 117.386 9.29728 116.828 9.99482C116.27 10.6924 115.991 11.6689 115.991 12.9245C115.991 14.1801 116.27 15.163 116.828 15.8732C117.386 16.5708 118.166 16.9196 119.168 16.9196ZM128.045 19.64V6.22806H134.494C136.016 6.22806 137.19 6.60221 138.014 7.35049C138.851 8.08609 139.269 9.11337 139.269 10.4324C139.269 11.4343 139.016 12.2777 138.509 12.9626C138.014 13.6348 137.291 14.104 136.34 14.3703C137.05 14.5606 137.621 15.0489 138.052 15.8352L140.145 19.64H136.302L133.981 15.3786C133.829 15.1123 133.632 14.922 133.391 14.8079C133.163 14.6938 132.897 14.6367 132.592 14.6367H131.546V19.64H128.045ZM131.546 12.1636H133.867C135.249 12.1636 135.94 11.6182 135.94 10.5275C135.94 9.44947 135.249 8.91046 133.867 8.91046H131.546V12.1636ZM144.264 19.64V9.08167H140.002V6.22806H152.026V9.08167H147.764V19.64H144.264Z" fill="#E4F8EF"/>
</g>
<defs>
<clipPath id="clip0_93_461">
<rect width="151.907" height="25.96" fill="white" transform="translate(0.449219 0.372803)"/>
</clipPath>
</defs>
</svg>
