<svg width="281" height="48" viewBox="0 0 281 48" fill="none" xmlns="http://www.w3.org/2000/svg">
<path d="M43.969 28.5922C41.6952 33.5165 37.5971 37.4498 32.4734 39.6255C32.4734 39.6255 23.8726 42.3838 21.9613 47.9005C20.0408 42.3838 11.4399 39.6255 11.4399 39.6255C6.33718 37.4389 2.26031 33.5069 0 28.5922C8.60082 36.8672 21.0335 35.9477 21.0335 35.9477V1L22.9448 4.67777V35.9209C22.9448 35.9209 35.3682 36.8672 43.969 28.5922Z" fill="#218E93"/>
<path d="M23.9004 6.5166C25.5891 15.951 25.5891 25.5938 23.9004 35.0282C23.9004 35.0282 29.6343 23.0755 43.969 20.3082C43.969 20.3082 32.4734 18.4693 23.9004 6.5166Z" fill="#F38D36"/>
<path d="M61.5271 36V11.2014H66.2758L77.6726 25.4122V11.2014H83.6524V36H78.9389L67.5421 21.7892V36H61.5271ZM85.1935 36L96.8014 11.2014H101.902L113.51 36H107.037L104.892 30.9699H93.8115L91.6658 36H85.1935ZM99.2988 17.955L95.922 26.0102H102.746L99.3692 17.955H99.2988ZM120.907 36L109.615 11.2014H116.51L123.615 27.6986L130.721 11.2014H137.369L126.042 36H120.907ZM133.457 36L145.064 11.2014H150.165L161.773 36H155.3L153.155 30.9699H142.075L139.929 36H133.457ZM147.562 17.955L144.185 26.0102H151.009L147.632 17.955H147.562ZM163.275 36V11.2014H169.747V30.6182H180.792V36H163.275Z" fill="#218E93"/>
<path d="M183.851 36V11.2014H195.775C198.589 11.2014 200.758 11.9283 202.283 13.3822C203.83 14.8127 204.604 16.7943 204.604 19.3269C204.604 21.8595 203.83 23.8528 202.283 25.3067C200.758 26.7372 198.589 27.4524 195.775 27.4524H190.323V36H183.851ZM190.323 22.4927H194.65C197.182 22.4927 198.449 21.4374 198.449 19.3269C198.449 17.2164 197.182 16.1611 194.65 16.1611H190.323V22.4927ZM219.513 36.3869C217.003 36.3869 214.799 35.8593 212.9 34.804C211.024 33.7253 209.558 32.2245 208.503 30.3016C207.447 28.3787 206.92 26.1392 206.92 23.5831C206.92 21.0036 207.436 18.7641 208.468 16.8646C209.523 14.9417 211 13.4526 212.9 12.3973C214.799 11.3421 217.003 10.8144 219.513 10.8144C222.022 10.8144 224.214 11.3421 226.09 12.3973C227.99 13.4526 229.467 14.9417 230.522 16.8646C231.578 18.7641 232.105 21.0036 232.105 23.5831C232.105 26.1392 231.578 28.3787 230.522 30.3016C229.467 32.2245 227.99 33.7253 226.09 34.804C224.214 35.8593 222.022 36.3869 219.513 36.3869ZM219.513 30.9699C221.342 30.9699 222.772 30.325 223.804 29.0353C224.859 27.7221 225.387 25.9047 225.387 23.5831C225.387 21.2615 224.871 19.4559 223.839 18.1661C222.807 16.8763 221.365 16.2314 219.513 16.2314C217.66 16.2314 216.218 16.8763 215.186 18.1661C214.154 19.4559 213.638 21.2615 213.638 23.5831C213.638 25.9047 214.154 27.7221 215.186 29.0353C216.218 30.325 217.66 30.9699 219.513 30.9699ZM235.927 36V11.2014H247.851C250.665 11.2014 252.834 11.8932 254.359 13.2767C255.906 14.6368 256.68 16.5363 256.68 18.9751C256.68 20.8277 256.211 22.3871 255.273 23.6534C254.359 24.8963 253.022 25.764 251.263 26.2564C252.576 26.6082 253.632 27.511 254.429 28.9649L258.298 36H251.193L246.902 28.1207C246.62 27.6283 246.257 27.2765 245.811 27.0655C245.389 26.8544 244.897 26.7489 244.334 26.7489H242.399V36H235.927ZM242.399 22.1761H246.69C249.247 22.1761 250.525 21.1677 250.525 19.151C250.525 17.1577 249.247 16.1611 246.69 16.1611H242.399V22.1761ZM265.915 36V16.4777H258.035V11.2014H280.266V16.4777H272.387V36H265.915Z" fill="#F38D36"/>
</svg>
