<svg width="24" height="26" viewBox="0 0 24 26" fill="none" xmlns="http://www.w3.org/2000/svg">
<path fill-rule="evenodd" clip-rule="evenodd" d="M18.6429 20.4092L15.9073 23.1552C14.4027 24.6655 13.1052 25.9012 13.024 25.9012C12.9427 25.9012 11.6452 24.6655 10.1406 23.1552L7.40506 20.4092H9.66531L11.9256 22.5722V17.4439H7.58589C6.88013 17.4439 6.19302 17.2173 5.62571 16.7975L6.71143 15.3304L5.62571 16.7975L2.0284 14.1354C0.24834 12.8181 0.24835 10.1551 2.0284 8.8378L5.62571 6.17571C6.19302 5.75589 6.88013 5.5293 7.58589 5.5293H11.9256V0.65332H13.024H14.1224V5.5293H19.9497C21.7696 5.5293 23.2449 7.00462 23.2449 8.82452V14.1487C23.2449 15.9686 21.7696 17.4439 19.9497 17.4439H14.1224V20.4092H16.3826L18.6429 20.4092ZM14.1224 15.5217H19.9497C20.708 15.5217 21.3227 14.907 21.3227 14.1487V8.82452C21.3227 8.06623 20.708 7.45151 19.9497 7.45151L7.58589 7.45151C7.29182 7.45151 7.00553 7.54592 6.76915 7.72085L3.17184 10.3829C2.43015 10.9318 2.43015 12.0414 3.17184 12.5903L6.76915 15.2524C7.00553 15.4273 7.29182 15.5217 7.58589 15.5217H11.9256V15.5217H14.1224V15.5217Z" fill="#D9D9D9"/>
</svg>
