<svg width="27" height="27" viewBox="0 0 27 27" fill="none" xmlns="http://www.w3.org/2000/svg">
<path fill-rule="evenodd" clip-rule="evenodd" d="M23.1501 1.30028C22.7061 0.856259 22.079 0.56217 21.5078 0.823131C20.9022 1.09984 20.4049 1.59133 20.0057 1.99312C19.6268 2.37426 19.1971 2.89377 19.0505 3.1476C18.7859 3.60575 18.7887 3.60923 19.425 3.63849C19.7775 3.65478 20.8295 3.90085 21.7627 4.18536C23.7867 4.80214 25.8785 5.15338 26.3303 4.95206C26.6074 4.8287 26.392 4.54214 24.9034 3.0535L23.1501 1.30028V1.30028ZM24.6036 5.50275C23.905 5.42289 22.3732 5.01578 21.3436 4.69095C18.9319 3.92994 18.3009 3.72296 17.2856 4.73826C16.0795 5.9443 16.2487 5.96375 17.2856 6.11146C17.7655 6.17994 18.6766 6.46158 19.4609 6.7211C21.4112 7.36665 23.0711 7.59786 24.0492 7.3608C24.9794 7.13528 25.704 6.80083 25.8053 6.11146C25.8673 5.68953 25.7595 5.63481 24.6036 5.50275ZM22.0708 7.98912C21.4303 7.93377 20.0065 7.59897 18.9067 7.24535C16.6134 6.5076 15.9669 6.52436 14.4448 7.3608C13.8421 7.69212 12.7875 8.03846 12.1015 8.13051C10.6913 8.31981 10.6337 8.50168 11.9704 8.54469L12.8691 8.57363L12.0412 9.24244C11.0892 10.0114 11.2328 10.1233 12.7355 9.78362L13.7894 9.54545L13.6956 10.2146C13.6053 10.859 13.6173 10.8758 14.0209 10.6721C15.2292 10.062 15.6625 9.93101 15.7689 10.1434C15.8496 10.3044 18.9605 8.35239 16.466 10.9054L8.55977 17.5518C8.55977 17.5518 8.24648 17.4036 7.9392 17.5417C7.32195 17.8189 7.11952 17.7228 7.11952 17.1522C7.11952 16.8571 7.05974 16.8324 6.85067 17.0415C6.5184 17.3737 6.31534 17.184 6.02451 16.2704C5.77274 15.4796 5.59261 15.5044 5.55133 16.3358C5.51085 17.1446 5.14094 17.0106 4.80661 16.0662C4.41821 14.9699 4.36017 14.9438 4.25579 15.8177C4.14904 16.7117 3.9795 16.9221 3.63965 16.5822C3.44924 16.3918 3.37001 16.577 3.3213 17.3263C3.28555 17.8751 3.00943 18.7376 2.70737 19.2427C2.12507 20.2172 2.1597 20.4597 2.872 20.3936C3.11444 20.371 4.18953 20.63 5.26113 20.9691C6.33242 21.3081 7.93208 21.5942 8.81549 21.605C10.1382 21.6211 10.6003 21.5076 11.4352 20.9621C11.9927 20.5976 12.6958 20.0526 12.9975 19.7509C13.5158 19.2326 13.5164 19.1836 13.0086 18.87C12.7127 18.6873 12.0536 18.477 11.5435 18.4025L10.6162 18.2671L12.0041 17.5518C12.4045 17.3241 11.4913 17.4927 10.5085 17.5417L8.55977 17.5518L16.466 10.9054C16.466 10.9054 16.5851 11.1048 16.6568 11.0357C16.7286 10.9667 16.9615 10.871 17.1747 10.8233C17.4949 10.7513 17.5482 10.9147 17.4821 11.7633C17.4192 12.5695 17.4663 12.7286 17.7016 12.5034C17.9556 12.2605 18.0119 12.3801 18.0709 13.2893C18.141 14.3689 18.4267 15.2383 18.8507 15.6623C19.0233 15.8348 19.1957 15.5403 19.5475 14.4705C19.8048 13.6888 20.056 13.0087 20.1056 12.9591C20.1553 12.9094 20.3236 13.3462 20.4797 13.9293C20.8747 15.4054 21.5173 16.4952 22.5035 17.3616L23.3454 18.1011L22.5563 16.2264C21.3746 13.4199 21.4249 11.9621 22.79 9.44376C23.0834 8.90242 23.3037 8.37627 23.2795 8.27458C23.2551 8.17305 22.7113 8.04447 22.0708 7.98912ZM7.72135 22.0892C7.00463 22.0513 5.61657 21.7535 4.637 21.4277C2.39764 20.6831 1.42653 20.5678 0.566685 21.4277C-0.0455032 22.0399 0.0218672 21.7372 0.566685 22.282C1.59211 23.3074 5.69224 24.374 7.22168 24.0129C8.13799 23.7966 9.18002 23.1341 9.26954 22.4509C9.32299 22.0438 8.88706 22.1511 7.72135 22.0892ZM5.52888 24.6651C5.0935 24.6789 4.06649 24.5068 3.24665 24.2829L1.75611 23.8757L3.37823 25.4165L5.00035 26.9573L5.63546 26.4196C6.25999 25.8909 6.6911 25.0107 6.44566 24.7652C6.37686 24.6964 5.96441 24.6515 5.52888 24.6651Z" fill="#D9D9D9"/>
</svg>
