<svg width="266" height="45" viewBox="0 0 266 45" fill="none" xmlns="http://www.w3.org/2000/svg">
<path d="M33.9915 1.98555L47.4933 1.03503H235.618L240.119 1.98555C248.76 2.93607 257.221 5.21731 265.322 8.63917V21.9464V37.1547C257.221 40.5765 248.76 42.7627 240.119 43.8083L235.618 44.7588H47.4933L33.9915 43.8083C21.3898 43.8083 8.78813 36.2042 1.58717 23.8474L0.68705 22.8969L1.58717 21.9464C8.78813 9.58969 21.3898 1.98555 33.9915 1.98555Z" stroke="#026266" stroke-width="0.462488"/>
<path d="M142.188 44.7589V24.3228H143.178V35.824H144.798V24.3228H146.148V44.7589H142.188Z" fill="#0A7D82"/>
<path d="M135.793 24.3228H139.754V44.7589H135.793V24.3228Z" fill="#0A7D82"/>
<path d="M103.928 44.7589V24.3228H105.098V35.824H106.719V24.3228H107.889V44.7589H103.928Z" fill="#0A7D82"/>
<path d="M154.875 24.3228H158.836V44.7589H154.875V24.3228Z" fill="#0A7D82"/>
<path d="M148.577 24.3228H152.537V44.7589H148.577V24.3228Z" fill="#0A7D82"/>
<path d="M129.405 24.3228H133.365V44.7589H129.405V24.3228Z" fill="#0A7D82"/>
<path d="M97.6293 24.3228H101.59V44.7589H97.6293V24.3228Z" fill="#0A7D82"/>
<path d="M161.27 24.3228H165.23V44.7589H161.27V24.3228Z" fill="#0A7D82"/>
<path d="M116.711 24.3228H120.672V44.7589H116.711V24.3228Z" fill="#0A7D82"/>
<path d="M110.325 24.3228H114.285V44.7589H110.325V24.3228Z" fill="#0A7D82"/>
<path d="M123.108 24.3228H127.068V44.7589H123.108V24.3228Z" fill="#0A7D82"/>
<path d="M25.1738 11.5844V21.4697H20.4932C20.8532 17.1924 22.6535 13.5804 25.1738 11.5844Z" fill="#0A7D82"/>
<path d="M212.217 24.3228H216.178V44.7589H212.217V24.3228Z" fill="#0A7D82"/>
<path d="M167.659 24.3228H171.619V44.7589H167.659V24.3228Z" fill="#0A7D82"/>
<path d="M205.823 24.3228H209.783V44.7589H205.823V24.3228Z" fill="#0A7D82"/>
<path d="M20.4932 24.3228H25.1738V34.2081C22.6535 32.3071 20.8532 28.6001 20.4932 24.3228Z" fill="#0A7D82"/>
<path d="M91.2406 24.3228H95.2012V44.7589H91.2406V24.3228Z" fill="#0A7D82"/>
<path d="M218.607 24.3228H221.938V44.7589H218.607V24.3228Z" fill="#0A7D82"/>
<path d="M180.352 24.3228H184.312V44.7589H180.352V24.3228Z" fill="#0A7D82"/>
<path d="M174.047 24.3228H178.008V44.7589H174.047V24.3228Z" fill="#0A7D82"/>
<path d="M186.741 44.7589V24.3228H187.551V35.824H189.171V24.3228H190.701V44.7589H186.741Z" fill="#0A7D82"/>
<path d="M199.524 44.7589V24.3228H200.694V35.824H202.314V24.3228H203.484V44.7589H199.524Z" fill="#0A7D82"/>
<path d="M193.135 24.3228H197.096V44.7589H193.135V24.3228Z" fill="#0A7D82"/>
<path d="M52.9809 24.3228H56.9414V44.7589H52.9809V24.3228Z" fill="#0A7D82"/>
<path d="M97.6293 1.03503H101.59V21.4712H97.6293V1.03503Z" fill="#0A7D82"/>
<path d="M91.2406 1.03503H95.2012V21.4712H91.2406V1.03503Z" fill="#0A7D82"/>
<path d="M47.4922 44.7589L46.6821 44.6638V24.3228H50.6426V44.7589H47.4922Z" fill="#0A7D82"/>
<path d="M84.8461 1.03503H88.8066V21.4712H84.8461V1.03503Z" fill="#0A7D82"/>
<path d="M82.418 1.03503V21.4712H81.4278V9.96989H79.8076V21.4712H78.4574V1.03503H82.418Z" fill="#0A7D82"/>
<path d="M129.405 1.03503H133.365V21.4712H129.405V1.03503Z" fill="#0A7D82"/>
<path d="M123.108 1.03503H127.068V21.4712H123.108V1.03503Z" fill="#0A7D82"/>
<path d="M116.711 1.03503H120.672V21.4712H116.711V1.03503Z" fill="#0A7D82"/>
<path d="M40.2934 44.2836V24.3228H44.2539V44.5688L40.2934 44.2836Z" fill="#0A7D82"/>
<path d="M110.325 1.03503H114.285V21.4712H110.325V1.03503Z" fill="#0A7D82"/>
<path d="M107.889 1.03503V21.4712H106.719V9.96989H105.098V21.4712H103.928V1.03503H107.889Z" fill="#0A7D82"/>
<path d="M28.0522 35.9191V35.729C27.8722 35.729 27.6921 35.6339 27.5121 35.5389V24.3228H31.4727V43.7133C30.1225 43.6182 28.8623 43.4281 27.5121 43.143V35.824C27.6921 35.9191 27.8722 35.9191 28.0522 35.9191V35.9191Z" fill="#0A7D82"/>
<path d="M44.2539 1.32178V21.4727H40.2934V1.51188L44.2539 1.32178Z" fill="#0A7D82"/>
<path d="M47.4922 1.03503H50.6426V21.4712H46.6821V1.13009L47.4922 1.03503Z" fill="#0A7D82"/>
<path d="M18.963 21.4725L18.873 22.8983V24.3241H18.963C19.323 29.4569 21.8434 33.6392 25.1738 35.16V42.479C15.8126 39.8175 7.17142 33.1639 1.59068 23.7538L0.690559 22.8033L1.59068 21.8527C7.08141 12.4426 15.7226 5.78901 25.1738 3.12756V10.4465C21.8434 12.1575 19.323 16.3398 18.963 21.4725Z" fill="#0A7D82"/>
<path d="M33.8989 21.4724V1.98682H33.9889L37.8594 1.70166V21.4724H33.8989Z" fill="#0A7D82"/>
<path d="M63.3379 1.03503V21.4712H62.3478V9.96989H60.7275V21.4712H59.3774V1.03503H63.3379Z" fill="#0A7D82"/>
<path d="M65.7641 1.03503H69.7246V21.4712H65.7641V1.03503Z" fill="#0A7D82"/>
<path d="M52.9809 1.03503H56.9414V21.4712H52.9809V1.03503Z" fill="#0A7D82"/>
<path d="M72.1606 1.03503H76.1211V21.4712H72.1606V1.03503Z" fill="#0A7D82"/>
<path d="M37.8594 24.3228V44.0935L33.9889 43.8084H33.8989V24.3228H37.8594Z" fill="#0A7D82"/>
<path d="M27.5121 21.4701V10.254C27.6921 10.1589 27.8722 10.1589 28.0522 10.0639V9.87379C27.8722 9.87379 27.6921 9.87379 27.5121 9.87379V2.55481C28.8623 2.26966 30.1225 2.07955 31.4727 1.9845V21.4701H27.5121Z" fill="#0A7D82"/>
<path d="M193.135 1.03503H197.096V21.4712H193.135V1.03503Z" fill="#0A7D82"/>
<path d="M78.4574 24.3228H82.418V44.7589H78.4574V24.3228Z" fill="#0A7D82"/>
<path d="M190.701 1.03503V21.4712H189.171V9.96989H187.551V21.4712H186.741V1.03503H190.701Z" fill="#0A7D82"/>
<path d="M199.524 1.03503H203.484V21.4712H199.524V1.03503Z" fill="#0A7D82"/>
<path d="M84.8461 24.3228H88.8066V44.7589H84.8461V24.3228Z" fill="#0A7D82"/>
<path d="M205.823 1.03503H209.783V21.4712H205.823V1.03503Z" fill="#0A7D82"/>
<path d="M180.352 1.03503H184.312V21.4712H180.352V1.03503Z" fill="#0A7D82"/>
<path d="M218.607 1.03503H221.938V21.4712H218.607V1.03503Z" fill="#0A7D82"/>
<path d="M212.217 1.03503H216.178V21.4712H212.217V1.03503Z" fill="#0A7D82"/>
<path d="M65.7641 24.3228H69.7246V44.7589H65.7641V24.3228Z" fill="#0A7D82"/>
<path d="M146.148 1.03503V21.4712H144.798V9.96989H143.178V21.4712H142.188V1.03503H146.148Z" fill="#0A7D82"/>
<path d="M148.577 1.03503H152.537V21.4712H148.577V1.03503Z" fill="#0A7D82"/>
<path d="M154.875 1.03503H158.836V21.4712H154.875V1.03503Z" fill="#0A7D82"/>
<path d="M59.3774 44.7589V24.3228H60.7275V35.824H62.3478V24.3228H63.3379V44.7589H59.3774Z" fill="#0A7D82"/>
<path d="M167.659 1.03503H171.619V21.4712H167.659V1.03503Z" fill="#0A7D82"/>
<path d="M135.793 1.03503H139.754V21.4712H135.793V1.03503Z" fill="#0A7D82"/>
<path d="M72.1606 24.3228H76.1211V44.7589H72.1606V24.3228Z" fill="#0A7D82"/>
<path d="M174.047 1.03503H178.008V21.4712H174.047V1.03503Z" fill="#0A7D82"/>
<path d="M161.27 1.03503H165.23V21.4712H161.27V1.03503Z" fill="#0A7D82"/>
<path d="M216.179 1.03503H218.609V21.4712H216.179V1.03503Z" fill="#218E93"/>
<path d="M216.179 24.3228H218.609V44.7589H216.179V24.3228Z" fill="#218E93"/>
<path d="M209.785 1.03503H212.215V21.4712H209.785V1.03503Z" fill="#218E93"/>
<path d="M209.785 24.3228H212.215V44.7589H209.785V24.3228Z" fill="#218E93"/>
<path d="M203.396 24.3228H205.826V44.7589H203.396V24.3228Z" fill="#218E93"/>
<path d="M203.396 1.03503H205.826V21.4712H203.396V1.03503Z" fill="#218E93"/>
<path d="M197.089 24.3228H199.52V44.7589H197.089V24.3228Z" fill="#218E93"/>
<path d="M197.089 1.03503H199.52V21.4712H197.089V1.03503Z" fill="#218E93"/>
<path d="M190.701 24.3228H193.131V44.7589H190.701V24.3228Z" fill="#218E93"/>
<path d="M190.701 1.03503H193.131V21.4712H190.701V1.03503Z" fill="#218E93"/>
<path d="M184.314 24.3228H186.744V44.7589H184.314V24.3228Z" fill="#218E93"/>
<path d="M184.314 1.03503H186.744V21.4712H184.314V1.03503Z" fill="#218E93"/>
<path d="M177.917 24.3228H180.348V44.7589H177.917V24.3228Z" fill="#218E93"/>
<path d="M177.917 1.03503H180.348V21.4712H177.917V1.03503Z" fill="#218E93"/>
<path d="M171.62 24.3228H174.051V44.7589H171.62V24.3228Z" fill="#218E93"/>
<path d="M171.62 1.03503H174.051V21.4712H171.62V1.03503Z" fill="#218E93"/>
<path d="M165.232 24.3228H167.662V44.7589H165.232V24.3228Z" fill="#218E93"/>
<path d="M165.232 1.03503H167.662V21.4712H165.232V1.03503Z" fill="#218E93"/>
<path d="M158.835 24.3228H161.266V44.7589H158.835V24.3228Z" fill="#218E93"/>
<path d="M158.835 1.03503H161.266V21.4712H158.835V1.03503Z" fill="#218E93"/>
<path d="M152.449 24.3228H154.879V44.7589H152.449V24.3228Z" fill="#218E93"/>
<path d="M152.449 1.03503H154.879V21.4712H152.449V1.03503Z" fill="#218E93"/>
<path d="M25.1673 10.5404V3.22144C25.9775 3.03134 26.7875 2.84123 27.5977 2.65112V9.9701C26.6975 9.9701 25.8874 10.2553 25.1673 10.5404Z" fill="#218E93"/>
<path d="M25.1673 24.3228H27.5977V35.5389C26.6975 35.2537 25.8874 34.7784 25.1673 34.2081V24.3228Z" fill="#218E93"/>
<path d="M25.1673 11.5855C25.8874 11.0152 26.6975 10.5399 27.5977 10.2548V21.4709H25.1673V11.5855Z" fill="#218E93"/>
<path d="M27.5078 35.8257V43.1447C26.6977 42.9546 25.8876 42.7645 25.0775 42.5743V35.2554C25.8876 35.6356 26.6977 35.8257 27.5078 35.8257Z" fill="#218E93"/>
<path d="M146.15 24.3228H148.58V44.7589H146.15V24.3228Z" fill="#218E93"/>
<path d="M146.15 1.03503H148.58V21.4712H146.15V1.03503Z" fill="#218E93"/>
<path d="M139.753 1.03503H142.184V21.4712H139.753V1.03503Z" fill="#218E93"/>
<path d="M139.753 24.3228H142.184V44.7589H139.753V24.3228Z" fill="#218E93"/>
<path d="M133.367 1.03503H135.797V21.4712H133.367V1.03503Z" fill="#218E93"/>
<path d="M133.367 24.3228H135.797V44.7589H133.367V24.3228Z" fill="#218E93"/>
<path d="M126.972 1.03503H129.402V21.4712H126.972V1.03503Z" fill="#218E93"/>
<path d="M126.972 24.3228H129.402V44.7589H126.972V24.3228Z" fill="#218E93"/>
<path d="M120.673 24.3228H123.104V44.7589H120.673V24.3228Z" fill="#218E93"/>
<path d="M120.673 1.03503H123.104V21.4712H120.673V1.03503Z" fill="#218E93"/>
<path d="M114.285 1.03503H116.715V21.4712H114.285V1.03503Z" fill="#218E93"/>
<path d="M114.285 24.3228H116.715V44.7589H114.285V24.3228Z" fill="#218E93"/>
<path d="M107.888 1.03503H110.318V21.4712H107.888V1.03503Z" fill="#218E93"/>
<path d="M107.888 24.3228H110.318V44.7589H107.888V24.3228Z" fill="#218E93"/>
<path d="M101.501 1.03503H103.932V21.4712H101.501V1.03503Z" fill="#218E93"/>
<path d="M101.501 24.3228H103.932V44.7589H101.501V24.3228Z" fill="#218E93"/>
<path d="M95.2025 24.3228H97.6328V44.7589H95.2025V24.3228Z" fill="#218E93"/>
<path d="M95.2025 1.03503H97.6328V21.4712H95.2025V1.03503Z" fill="#218E93"/>
<path d="M88.808 24.3228H91.2383V44.7589H88.808V24.3228Z" fill="#218E93"/>
<path d="M88.808 1.03503H91.2383V21.4712H88.808V1.03503Z" fill="#218E93"/>
<path d="M82.4193 24.3228H84.8496V44.7589H82.4193V24.3228Z" fill="#218E93"/>
<path d="M82.4193 1.03503H84.8496V21.4712H82.4193V1.03503Z" fill="#218E93"/>
<path d="M76.0248 24.3228H78.4551V44.7589H76.0248V24.3228Z" fill="#218E93"/>
<path d="M76.0248 1.03503H78.4551V21.4712H76.0248V1.03503Z" fill="#218E93"/>
<path d="M69.7259 24.3228H72.1562V44.7589H69.7259V24.3228Z" fill="#218E93"/>
<path d="M69.7259 1.03503H72.1562V21.4712H69.7259V1.03503Z" fill="#218E93"/>
<path d="M63.3392 24.3228H65.7695V44.7589H63.3392V24.3228Z" fill="#218E93"/>
<path d="M63.3392 1.03503H65.7695V21.4712H63.3392V1.03503Z" fill="#218E93"/>
<path d="M56.9427 24.3228H59.373V44.7589H56.9427V24.3228Z" fill="#218E93"/>
<path d="M56.9427 1.03503H59.373V21.4712H56.9427V1.03503Z" fill="#218E93"/>
<path d="M50.556 24.3228H52.9863V44.7589H50.556V24.3228Z" fill="#218E93"/>
<path d="M50.556 1.03503H52.9863V21.4712H50.556V1.03503Z" fill="#218E93"/>
<path d="M44.2552 44.5688V24.3228H46.6855V44.6638L44.2552 44.5688Z" fill="#218E93"/>
<path d="M46.6855 1.13171V21.4728H44.2552V1.32181L46.6855 1.13171Z" fill="#218E93"/>
<path d="M40.291 1.5116V21.4725H37.8607V1.7017L40.291 1.5116Z" fill="#218E93"/>
<path d="M37.8607 44.0935V24.3228H40.291V44.2836L37.8607 44.0935Z" fill="#218E93"/>
<path d="M31.472 21.4701V2.07955C32.2821 1.9845 33.0922 1.9845 33.9023 1.9845V21.4701H31.472Z" fill="#218E93"/>
<path d="M33.9023 24.3228V43.8084C33.0922 43.8084 32.2821 43.8083 31.472 43.7133V24.3228H33.9023Z" fill="#218E93"/>
<path d="M221.936 21.4706H222.836V24.4172H221.936V21.4706Z" fill="#66BEC2"/>
<path d="M27.5121 21.4706H31.4727V24.4172H27.5121V21.4706Z" fill="#66BEC2"/>
<path d="M33.8989 21.4706H37.8594V24.4172H33.8989V21.4706Z" fill="#66BEC2"/>
<path d="M20.4032 22.8964C20.4032 22.4211 20.4032 21.9458 20.4932 21.4706H25.1738V24.4172H20.4932C20.4032 23.8469 20.4032 23.3716 20.4032 22.8964Z" fill="#66BEC2"/>
<path d="M106.719 21.4706H107.889V24.4172H106.719V21.4706Z" fill="#66BEC2"/>
<path d="M129.405 21.4706H133.365V24.4172H129.405V21.4706Z" fill="#66BEC2"/>
<path d="M65.7641 21.4706H69.7246V24.4172H65.7641V21.4706Z" fill="#66BEC2"/>
<path d="M110.325 21.4706H114.285V24.4172H110.325V21.4706Z" fill="#66BEC2"/>
<path d="M116.711 21.4706H120.672V24.4172H116.711V21.4706Z" fill="#66BEC2"/>
<path d="M142.19 21.4706H143.18V24.4172H142.19V21.4706Z" fill="#66BEC2"/>
<path d="M135.793 21.4706H139.754V24.4172H135.793V21.4706Z" fill="#66BEC2"/>
<path d="M123.108 21.4706H127.068V24.4172H123.108V21.4706Z" fill="#66BEC2"/>
<path d="M82.418 21.4706V24.3221H78.4574V21.4706H79.8076V22.8964H81.4278V21.4706H82.418Z" fill="#66BEC2"/>
<path d="M72.1606 21.4706H76.1211V24.4172H72.1606V21.4706Z" fill="#66BEC2"/>
<path d="M103.929 21.4706H105.1V24.4172H103.929V21.4706Z" fill="#66BEC2"/>
<path d="M84.8461 21.4706H88.8066V24.4172H84.8461V21.4706Z" fill="#66BEC2"/>
<path d="M91.2406 21.4706H95.2012V24.4172H91.2406V21.4706Z" fill="#66BEC2"/>
<path d="M97.6293 21.4706H101.59V24.4172H97.6293V21.4706Z" fill="#66BEC2"/>
<path d="M144.798 21.4706H146.148V24.4172H144.798V21.4706Z" fill="#66BEC2"/>
<path d="M203.484 21.4706V24.3221H202.314V22.8964H200.694V24.3221H199.524V21.4706H203.484Z" fill="#66BEC2"/>
<path d="M189.171 21.4706H190.701V24.4172H189.171V21.4706Z" fill="#66BEC2"/>
<path d="M193.135 21.4706H197.096V24.4172H193.135V21.4706Z" fill="#66BEC2"/>
<path d="M205.823 21.4706H209.783V24.4172H205.823V21.4706Z" fill="#66BEC2"/>
<path d="M218.607 21.4706H221.938V24.4172H218.607V21.4706Z" fill="#66BEC2"/>
<path d="M212.217 21.4706H216.178V24.4172H212.217V21.4706Z" fill="#66BEC2"/>
<path d="M148.577 21.4706H152.537V24.4172H148.577V21.4706Z" fill="#66BEC2"/>
<path d="M161.27 21.4706H165.23V24.4172H161.27V21.4706Z" fill="#66BEC2"/>
<path d="M154.875 21.4706H158.836V24.4172H154.875V21.4706Z" fill="#66BEC2"/>
<path d="M174.047 21.4706H178.008V24.4172H174.047V21.4706Z" fill="#66BEC2"/>
<path d="M186.743 21.4706H187.553V24.4172H186.743V21.4706Z" fill="#66BEC2"/>
<path d="M167.659 21.4706H171.619V24.4172H167.659V21.4706Z" fill="#66BEC2"/>
<path d="M180.352 21.4706H184.312V24.4172H180.352V21.4706Z" fill="#66BEC2"/>
<path d="M62.3478 21.4706H63.3379V24.4172H62.3478V21.4706Z" fill="#66BEC2"/>
<path d="M46.6821 21.4706H50.6426V24.4172H46.6821V21.4706Z" fill="#66BEC2"/>
<path d="M59.3764 21.4706H60.7266V24.4172H59.3764V21.4706Z" fill="#66BEC2"/>
<path d="M52.9809 21.4706H56.9414V24.4172H52.9809V21.4706Z" fill="#66BEC2"/>
<path d="M40.2934 21.4706H44.2539V24.4172H40.2934V21.4706Z" fill="#66BEC2"/>
<path d="M216.179 21.4706H218.609V24.4172H216.179V21.4706Z" fill="#66BEC2"/>
<path d="M209.785 21.4706H212.215V24.4172H209.785V21.4706Z" fill="#66BEC2"/>
<path d="M203.396 21.4706H205.826V24.4172H203.396V21.4706Z" fill="#66BEC2"/>
<path d="M197.089 21.4706H199.52V24.4172H197.089V21.4706Z" fill="#66BEC2"/>
<path d="M190.701 21.4706H193.131V24.4172H190.701V21.4706Z" fill="#66BEC2"/>
<path d="M184.314 21.4706H186.744V24.4172H184.314V21.4706Z" fill="#66BEC2"/>
<path d="M177.917 21.4706H180.348V24.4172H177.917V21.4706Z" fill="#66BEC2"/>
<path d="M171.62 21.4706H174.051V24.4172H171.62V21.4706Z" fill="#66BEC2"/>
<path d="M165.232 21.4706H167.662V24.4172H165.232V21.4706Z" fill="#66BEC2"/>
<path d="M158.835 21.4706H161.266V24.4172H158.835V21.4706Z" fill="#66BEC2"/>
<path d="M152.449 21.4706H154.879V24.4172H152.449V21.4706Z" fill="#66BEC2"/>
<path d="M25.0775 21.4706H27.5078V24.4172H25.0775V21.4706Z" fill="#66BEC2"/>
<path d="M146.15 21.4706H148.58V24.4172H146.15V21.4706Z" fill="#66BEC2"/>
<path d="M139.753 21.4706H142.184V24.4172H139.753V21.4706Z" fill="#66BEC2"/>
<path d="M133.367 21.4706H135.797V24.4172H133.367V21.4706Z" fill="#66BEC2"/>
<path d="M126.972 21.4706H129.402V24.4172H126.972V21.4706Z" fill="#66BEC2"/>
<path d="M120.673 21.4706H123.104V24.4172H120.673V21.4706Z" fill="#66BEC2"/>
<path d="M114.285 21.4706H116.715V24.4172H114.285V21.4706Z" fill="#66BEC2"/>
<path d="M107.888 21.4706H110.318V24.4172H107.888V21.4706Z" fill="#66BEC2"/>
<path d="M101.501 21.4706H103.932V24.4172H101.501V21.4706Z" fill="#66BEC2"/>
<path d="M95.2025 21.4706H97.6328V24.4172H95.2025V21.4706Z" fill="#66BEC2"/>
<path d="M88.808 21.4706H91.2383V24.4172H88.808V21.4706Z" fill="#66BEC2"/>
<path d="M82.4193 21.4706H84.8496V24.4172H82.4193V21.4706Z" fill="#66BEC2"/>
<path d="M76.0248 21.4706H78.4551V24.4172H76.0248V21.4706Z" fill="#66BEC2"/>
<path d="M69.7259 21.4706H72.1562V24.4172H69.7259V21.4706Z" fill="#66BEC2"/>
<path d="M63.3392 21.4706H65.7695V24.4172H63.3392V21.4706Z" fill="#66BEC2"/>
<path d="M56.9427 21.4706H59.373V24.4172H56.9427V21.4706Z" fill="#66BEC2"/>
<path d="M50.556 21.4706H52.9863V24.4172H50.556V21.4706Z" fill="#66BEC2"/>
<path d="M44.2552 21.4706H46.6855V24.4172H44.2552V21.4706Z" fill="#66BEC2"/>
<path d="M37.8607 21.4706H40.291V24.4172H37.8607V21.4706Z" fill="#66BEC2"/>
<path d="M31.472 21.4706H33.9023V24.4172H31.472V21.4706Z" fill="#66BEC2"/>
<path d="M20.4932 21.4705H18.963C19.323 16.3377 21.8434 12.1555 25.1738 10.6346V11.5852C22.6535 13.5812 20.8532 17.1932 20.4932 21.4705Z" fill="#66BEC2"/>
<path d="M28.0527 35.7303V35.9204C27.8727 35.9204 27.6927 35.9204 27.5127 35.9204V35.6353C27.6927 35.6353 27.8727 35.6353 28.0527 35.7303V35.7303Z" fill="#66BEC2"/>
<path d="M25.1738 34.2081V35.1586C21.8434 33.5428 19.413 29.3605 18.963 24.3228H20.4932C20.8532 28.6001 22.6535 32.3071 25.1738 34.2081Z" fill="#66BEC2"/>
<path d="M28.0527 9.87488V10.065C27.8727 10.065 27.6927 10.16 27.5127 10.2551V9.96992C27.6927 9.96992 27.8727 9.87488 28.0527 9.87488V9.87488Z" fill="#66BEC2"/>
<path d="M25.1673 10.5402C25.8874 10.16 26.6975 9.96993 27.5977 9.87488V10.16C26.6975 10.4452 25.8874 10.9204 25.1673 11.4908V10.5402Z" fill="#66BEC2"/>
<path d="M27.5078 35.5396V35.8248C26.6977 35.7297 25.8876 35.5396 25.0775 35.1594V34.2089C25.8876 34.8742 26.6977 35.2544 27.5078 35.5396V35.5396Z" fill="#66BEC2"/>
<path d="M20.4002 22.8964C20.4002 23.3716 20.4002 23.8469 20.4902 24.3221H18.96C18.96 23.8469 18.87 23.3716 18.87 22.8964C18.87 22.4211 18.87 21.9458 18.96 21.4706H20.4902C20.4002 21.9458 20.4002 22.4211 20.4002 22.8964Z" fill="#66BEC2"/>
<path d="M187.554 24.3228H189.174V35.729H187.554V24.3228Z" fill="#66BEC2"/>
<path d="M187.554 9.96826H189.174V21.3745H187.554V9.96826Z" fill="#66BEC2"/>
<path d="M187.554 21.4706H189.174V24.4172H187.554V21.4706Z" fill="#66BEC2"/>
<path d="M200.696 24.3228H202.316V35.729H200.696V24.3228Z" fill="#66BEC2"/>
<path d="M200.696 22.8965H202.316V24.3223H200.696V22.8965Z" fill="#66BEC2"/>
<path d="M143.175 9.96826H144.795V21.3745H143.175V9.96826Z" fill="#66BEC2"/>
<path d="M143.175 24.3228H144.795V35.729H143.175V24.3228Z" fill="#66BEC2"/>
<path d="M143.175 21.4706H144.795V24.4172H143.175V21.4706Z" fill="#66BEC2"/>
<path d="M105.102 9.96826H106.723V21.3745H105.102V9.96826Z" fill="#66BEC2"/>
<path d="M105.102 24.3228H106.723V35.729H105.102V24.3228Z" fill="#66BEC2"/>
<path d="M105.102 21.4706H106.723V24.4172H105.102V21.4706Z" fill="#66BEC2"/>
<path d="M60.7216 9.96826H62.3418V21.3745H60.7216V9.96826Z" fill="#66BEC2"/>
<path d="M60.7216 24.3228H62.3418V35.729H60.7216V24.3228Z" fill="#66BEC2"/>
<path d="M60.7216 21.4706H62.3418V24.4172H60.7216V21.4706Z" fill="#66BEC2"/>
<path d="M79.8114 9.96826H81.4316V21.3745H79.8114V9.96826Z" fill="#66BEC2"/>
<path d="M79.8114 21.4706H81.4316V22.8964H79.8114V21.4706Z" fill="#66BEC2"/>
<path d="M221.936 21.4712V1.03503H235.618L240.119 1.98555C248.76 2.93607 257.221 5.21731 265.322 8.63917V21.9464V37.1547C257.221 40.5765 248.76 42.7627 240.119 43.8083L235.618 44.7588H221.846V24.3227H222.747V21.4712H221.936Z" fill="#66BEC2"/>
<path d="M224.636 35.35V10.5415H241.198V13.8683H247.229V32.0232H241.198V35.35H224.636Z" fill="#E4F8EF" stroke="#026266" stroke-width="0.231244" stroke-miterlimit="10"/>
<path d="M225.445 34.5889H228.686V44.2841H225.445V34.5889Z" fill="#E4F8EF" stroke="#026266" stroke-width="0.231244" stroke-miterlimit="10"/>
<path d="M256.682 28.4114C253.798 28.4114 251.461 25.9431 251.461 22.8984C251.461 19.8536 253.798 17.3854 256.682 17.3854C259.565 17.3854 261.902 19.8536 261.902 22.8984C261.902 25.9431 259.565 28.4114 256.682 28.4114Z" fill="#66BEC2" stroke="#F38D36" stroke-width="0.924975"/>
<path d="M257.848 20.4242V22.6104H255.418V20.4242H254.788V25.652H255.418V23.1807H257.848V25.652H258.479V20.4242H257.848Z" fill="#E4F8EF"/>
<path d="M245.43 17.4803C244.983 17.4803 244.62 17.0973 244.62 16.6249C244.62 16.1524 244.983 15.7694 245.43 15.7694C245.878 15.7694 246.24 16.1524 246.24 16.6249C246.24 17.0973 245.878 17.4803 245.43 17.4803Z" fill="#E4F8EF" stroke="#026266" stroke-width="0.184995" stroke-miterlimit="10"/>
<path d="M242.549 17.4803C242.102 17.4803 241.739 17.0973 241.739 16.6249C241.739 16.1524 242.102 15.7694 242.549 15.7694C242.997 15.7694 243.359 16.1524 243.359 16.6249C243.359 17.0973 242.997 17.4803 242.549 17.4803Z" fill="#E4F8EF" stroke="#026266" stroke-width="0.184995" stroke-miterlimit="10"/>
<path d="M245.43 30.1221C244.983 30.1221 244.62 29.7391 244.62 29.2666C244.62 28.7941 244.983 28.4111 245.43 28.4111C245.878 28.4111 246.24 28.7941 246.24 29.2666C246.24 29.7391 245.878 30.1221 245.43 30.1221Z" fill="#E4F8EF" stroke="#026266" stroke-width="0.184995" stroke-miterlimit="10"/>
<path d="M242.549 30.1221C242.102 30.1221 241.739 29.7391 241.739 29.2666C241.739 28.7941 242.102 28.4111 242.549 28.4111C242.997 28.4111 243.359 28.7941 243.359 29.2666C243.359 29.7391 242.997 30.1221 242.549 30.1221Z" fill="#E4F8EF" stroke="#026266" stroke-width="0.184995" stroke-miterlimit="10"/>
<path d="M225.445 1.60474H228.686V11.3H225.445V1.60474Z" fill="#E4F8EF" stroke="#026266" stroke-width="0.231244" stroke-miterlimit="10"/>
<path d="M247.772 25.9378H240.751V19.8545H247.772C249.392 19.8545 250.652 21.1852 250.652 22.8961C250.652 24.6071 249.392 25.9378 247.772 25.9378V25.9378Z" fill="#E4F8EF" stroke="#026266" stroke-width="0.231244" stroke-miterlimit="10"/>
<path d="M225.448 14.5332H240.75V31.1673H225.448V14.5332Z" fill="#E4F8EF" stroke="#026266" stroke-width="0.184995" stroke-miterlimit="10"/>
</svg>
