<svg width="114" height="26" viewBox="0 0 114 26" fill="none" xmlns="http://www.w3.org/2000/svg">
<g clip-path="url(#clip0_93_466)">
<path fill-rule="evenodd" clip-rule="evenodd" d="M25.3563 0.0647332C24.8631 0.106202 24.8752 0.104218 24.27 0.242795C23.003 0.532949 21.9012 1.11767 21.0745 1.93864C20.2584 2.74899 19.7231 3.7729 19.523 4.90619C19.4672 5.22181 19.4546 5.41812 19.4537 5.98475C19.4523 6.81175 19.5048 7.20558 19.695 7.79487C20.0972 9.04047 20.8636 9.95124 22.054 10.598C22.45 10.8133 22.7964 10.9559 23.9237 11.3683C24.4475 11.56 24.6359 11.6434 24.809 11.7608C25.0126 11.8989 25.1561 12.0762 25.2024 12.2471C25.2473 12.4132 25.2211 12.7072 25.1519 12.8127C25.0778 12.9258 24.8098 13.0498 24.5528 13.0898C24.0004 13.1758 22.9944 12.9378 22.3021 12.5573C21.6825 12.2168 20.8097 11.5378 20.0707 10.8215C19.9258 10.6811 19.7983 10.5664 19.7873 10.5667C19.7763 10.567 19.5903 10.831 19.3738 11.1534C18.1855 12.923 16.9393 14.771 16.858 14.8842C16.8185 14.9391 16.8234 14.9554 16.9052 15.0416C17.2386 15.3927 18.3381 16.2499 18.8227 16.5364C18.9613 16.6183 19.0959 16.7025 19.1219 16.7235C19.1956 16.7831 19.996 17.1924 20.2239 17.287C21.1287 17.6626 22.1045 17.9056 23.2151 18.0319C23.3798 18.0506 23.8261 18.066 24.2071 18.066C24.9227 18.066 25.2076 18.0437 25.9073 17.9333C28.4872 17.5263 30.4556 16.1152 31.3084 14.0613C31.4865 13.6319 31.6205 13.1083 31.687 12.5822C31.8282 11.4614 31.6932 10.3915 31.3155 9.63729C31.1068 9.2209 30.9255 8.98002 30.5083 8.56524C29.8853 7.9456 29.2393 7.5363 27.9069 6.9167C26.5682 6.29422 26.4501 6.235 26.2476 6.08485C26.1404 6.00532 26.0021 5.86542 25.9405 5.77398C25.8385 5.6224 25.8287 5.58811 25.8287 5.3847C25.8287 5.17406 25.8349 5.15432 25.9424 5.02898C26.207 4.71978 26.6159 4.64828 27.2929 4.79291C27.6324 4.86542 27.7966 4.9238 28.2073 5.11787C28.7647 5.38134 29.3775 5.788 30.0277 6.32628L30.1807 6.45284L30.2346 6.38144C30.2642 6.34218 30.3151 6.2581 30.3475 6.19463C30.3801 6.13114 30.4517 6.0013 30.5071 5.90605C30.5622 5.81078 30.725 5.52031 30.8689 5.26055C31.0126 5.00079 31.2247 4.61821 31.34 4.41039C31.4555 4.20257 31.667 3.82001 31.8103 3.56023C31.9536 3.30047 32.0814 3.07375 32.0945 3.05645C32.1075 3.03912 32.1721 2.92576 32.2382 2.80453C32.304 2.68331 32.4048 2.49911 32.4617 2.39521C32.5189 2.29129 32.5658 2.19789 32.5662 2.18767C32.567 2.16664 31.8405 1.65736 31.528 1.45978C30.9526 1.09623 29.9662 0.64432 29.2801 0.430017C28.1878 0.0888525 26.7081 -0.0489045 25.3563 0.0647332ZM88.9294 0.0666539C87.4374 0.175915 85.827 0.672061 84.5053 1.42977C83.195 2.18087 81.9966 3.33367 81.2098 4.59986C81.1027 4.77196 80.9862 4.97511 80.8127 5.29204C80.7369 5.43058 80.6825 5.51906 80.692 5.48864C80.7097 5.43179 80.7572 5.17277 80.9305 4.18997C80.9852 3.87825 81.0774 3.36108 81.1351 3.04069C81.1927 2.72031 81.285 2.20313 81.34 1.89141C81.3951 1.57968 81.4746 1.14044 81.5165 0.9153C81.5585 0.690166 81.5927 0.48827 81.5927 0.466606C81.5927 0.435245 80.2307 0.427246 74.888 0.427246C68.5298 0.427246 68.1825 0.430081 68.1672 0.482349C68.1585 0.51264 68.1426 0.6083 68.1322 0.694889C68.1217 0.781479 68.0652 1.12154 68.0066 1.45058C67.9478 1.77963 67.8563 2.30389 67.8027 2.61561C67.6373 3.58124 67.485 4.45161 67.3894 4.98034C67.3389 5.25916 67.2974 5.51055 67.2974 5.53899C67.2974 5.58622 67.4566 5.59135 69.1503 5.5988L71.0031 5.60691L70.9129 6.09497C70.8163 6.61826 70.663 7.47301 70.5062 8.36205C70.4529 8.66511 70.3621 9.17522 70.3046 9.49559C70.2472 9.81599 70.1557 10.3332 70.1011 10.6449C70.0047 11.1959 69.9027 11.772 69.6719 13.0694C69.6101 13.4158 69.5195 13.9259 69.4704 14.2029C69.3688 14.7755 69.2058 15.6873 69.048 16.5645C68.9237 17.255 68.8719 17.5645 68.8719 17.6151C68.8719 17.6722 75.0939 17.6657 75.1158 17.6085C75.1247 17.5853 75.1492 17.4542 75.1702 17.3173C75.1909 17.1803 75.2543 16.8203 75.3108 16.5173C75.3674 16.2142 75.4593 15.7112 75.5151 15.3995C75.571 15.0877 75.6654 14.5635 75.725 14.2344C75.7843 13.9054 75.8741 13.4095 75.924 13.1324C76.022 12.5891 76.1802 11.7159 76.3488 10.7866C76.407 10.4662 76.4994 9.95609 76.5539 9.65302C76.6084 9.34998 76.7008 8.83987 76.7594 8.5195C76.8177 8.1991 76.9097 7.68902 76.9636 7.38595C77.0173 7.08288 77.1139 6.55628 77.1781 6.21578L77.2947 5.59662L78.9635 5.58565C79.8814 5.57962 80.6387 5.57869 80.6461 5.5836C80.6538 5.58855 80.6274 5.66663 80.5877 5.75717C80.0301 7.02664 79.7443 8.2089 79.6369 9.69094C79.583 10.4343 79.619 11.065 79.7677 11.9831C79.816 12.2814 80.0309 13.0404 80.1311 13.2671C80.173 13.3618 80.2072 13.451 80.2072 13.4653C80.2072 13.4957 80.496 14.0961 80.5769 14.2345C80.6075 14.2864 80.6735 14.3998 80.7238 14.4864C80.8795 14.7548 81.318 15.324 81.5956 15.6177C82.7221 16.8107 84.3856 17.6462 86.2056 17.9333C86.9047 18.0436 87.1902 18.0659 87.9059 18.0664C89.3433 18.0671 90.6761 17.8238 91.9679 17.3246C92.4263 17.1474 93.3104 16.7092 93.575 16.528C93.6261 16.4929 93.7477 16.4135 93.8451 16.3515C94.4347 15.9757 95.3258 15.1953 95.7882 14.6495C96.0643 14.3238 96.4928 13.7529 96.6047 13.5619C96.6518 13.4815 96.7351 13.3491 96.7898 13.2677C96.9184 13.0763 97.3732 12.158 97.4805 11.8729C97.6294 11.4773 97.8697 10.7511 97.8904 10.6337C97.9015 10.5706 97.9508 10.3522 97.9997 10.1485C98.1534 9.50982 98.2315 8.6922 98.2303 7.73231C98.2295 7.13692 98.214 6.78064 98.1762 6.48856C98.1468 6.26341 98.1146 6.01591 98.1045 5.93853C98.0729 5.69539 97.8753 4.94615 97.7483 4.58722C97.2321 3.1274 96.203 1.93961 94.7891 1.17183C94.609 1.07403 94.456 0.994019 94.4492 0.994019C94.4421 0.994019 94.3011 0.930256 94.1352 0.852326C93.9696 0.774395 93.8251 0.710789 93.8141 0.710978C93.803 0.7112 93.6595 0.662771 93.4949 0.60345C93.159 0.482287 92.5915 0.316129 92.4243 0.289994C92.3637 0.280515 92.1442 0.235931 91.9363 0.190934C91.2092 0.0334349 90.0418 -0.0148039 88.9294 0.0666539ZM105.665 0.0665279C105.405 0.0886949 105.058 0.137249 104.893 0.174435C104.729 0.211591 104.502 0.261969 104.39 0.286373C104.155 0.337255 103.577 0.537642 103.313 0.659403C103.215 0.704901 103.125 0.74212 103.114 0.74212C103.057 0.74212 102.349 1.16005 102.078 1.35379C100.798 2.26869 99.9151 3.78733 99.7907 5.29118C99.6995 6.39142 99.813 7.35411 100.125 8.12984C100.244 8.42395 100.567 9.01843 100.684 9.15628C100.722 9.20098 100.837 9.33939 100.94 9.4639C101.466 10.0989 102.384 10.6965 103.382 11.0543C103.653 11.1514 104.114 11.3191 104.484 11.4547C105.076 11.6718 105.332 11.8437 105.47 12.1166C105.568 12.3098 105.585 12.5892 105.507 12.7387C105.448 12.8544 105.291 12.9745 105.111 13.0421C104.942 13.106 104.353 13.1139 104.043 13.0563C103.398 12.9365 102.656 12.6247 102.113 12.2456C101.508 11.8228 101.199 11.5684 100.459 10.884C100.257 10.6968 100.093 10.5681 100.081 10.5863C100.07 10.604 99.9326 10.8066 99.7766 11.0364C98.8272 12.4366 97.6298 14.2144 97.2941 14.7219L97.1418 14.9524L97.3571 15.1602C97.7618 15.5505 98.4201 16.0667 98.9847 16.4364C100.384 17.3523 101.741 17.8279 103.539 18.0318C103.939 18.0772 105.112 18.0766 105.523 18.0308C106.762 17.8929 107.669 17.6434 108.625 17.1777C109.417 16.7915 110 16.3571 110.583 15.7186C111.189 15.0553 111.711 14.0708 111.888 13.259C112.019 12.656 112.046 12.4541 112.063 11.9496C112.104 10.749 111.839 9.79649 111.252 9.02328C110.822 8.45766 110.043 7.83775 109.2 7.39058C108.968 7.26762 107.92 6.76726 107.398 6.53062C106.508 6.12671 106.198 5.86659 106.134 5.47133C106.093 5.2107 106.273 4.93394 106.57 4.80056C106.917 4.64526 107.638 4.73346 108.298 5.01162C108.624 5.14924 109.248 5.48924 109.42 5.62272C109.468 5.65941 109.655 5.79684 109.837 5.92819C110.019 6.05951 110.246 6.2349 110.343 6.31789L110.518 6.46884L110.614 6.28977C110.666 6.19129 110.77 6.00444 110.843 5.87455C110.917 5.74467 111.027 5.54629 111.088 5.43374C111.149 5.32116 111.209 5.21489 111.222 5.19758C111.235 5.18026 111.302 5.05981 111.372 4.92993C111.443 4.80005 111.563 4.58042 111.641 4.44188C111.719 4.30333 111.869 4.03411 111.975 3.84362C112.08 3.65312 112.208 3.42405 112.259 3.33456C112.31 3.24511 112.4 3.08216 112.459 2.97247C112.519 2.86279 112.641 2.6408 112.732 2.47915C112.822 2.31749 112.892 2.18238 112.886 2.17892C112.88 2.17546 112.812 2.12197 112.734 2.06003C112.565 1.92645 111.958 1.52493 111.647 1.34202C111.415 1.20502 110.425 0.710632 110.383 0.710632C110.37 0.710632 110.238 0.662866 110.09 0.604488C109.763 0.47558 109.305 0.331304 109.113 0.296953C109.035 0.283035 108.801 0.23552 108.593 0.191312C107.873 0.0381264 106.621 -0.0151817 105.665 0.0665279ZM38.4806 0.561069C38.4396 0.634684 38.0999 1.31125 37.7256 2.06459C36.7578 4.01236 35.1495 7.25209 33.8489 9.87344C33.2347 11.1117 32.121 13.3543 31.3742 14.857C30.6274 16.3597 30.0165 17.603 30.0165 17.62C30.0165 17.6399 31.1826 17.6508 33.3075 17.6508H36.5986L36.6264 17.58C36.6415 17.541 36.6986 17.3887 36.7532 17.2415C36.8987 16.8492 37.0637 16.4121 37.1812 16.1079C37.2382 15.9607 37.3199 15.7482 37.3627 15.6356L37.4408 15.431L39.6011 15.4229L41.7612 15.4148L41.7614 16.0369C41.7614 16.379 41.7707 16.8821 41.782 17.1549L41.8027 17.6508H44.8048C47.6429 17.6508 47.8069 17.6478 47.8069 17.5957C47.8069 17.5654 47.7783 17.3281 47.7435 17.0683C47.7087 16.8085 47.6383 16.2843 47.5872 15.9033C47.536 15.5223 47.4445 14.8421 47.3837 14.3919C47.3229 13.9416 47.2298 13.2473 47.1768 12.849C47.0752 12.0875 46.9353 11.0457 46.7528 9.69239C46.6926 9.24648 46.6001 8.5557 46.5469 8.15738C46.494 7.75907 46.4021 7.07185 46.3427 6.63025C46.2833 6.18863 46.1926 5.50852 46.1408 5.11886C46.0891 4.7292 45.9972 4.042 45.9362 3.59173C45.8752 3.14145 45.8114 2.6597 45.7941 2.52115C45.7768 2.38261 45.7279 2.02129 45.6852 1.71823C45.6426 1.41516 45.5919 1.03161 45.5723 0.865865C45.5528 0.700148 45.5287 0.533674 45.5188 0.495889L45.5009 0.427246H42.0279H38.5549L38.4806 0.561069ZM51.0396 0.448092C51.028 0.45971 51.0185 0.509271 51.0185 0.558235C51.0185 0.607197 50.9773 0.870526 50.9267 1.14339C50.8193 1.72348 50.6498 2.67123 50.5142 3.45003C50.4615 3.7531 50.3679 4.28443 50.3063 4.63081C50.1341 5.59894 49.9865 6.43521 49.8839 7.02384C49.8328 7.31825 49.741 7.83896 49.6805 8.18099C49.6197 8.52304 49.5217 9.07564 49.4625 9.409C49.4034 9.74235 49.3106 10.2702 49.256 10.5819C49.1039 11.4538 48.9449 12.3566 48.8461 12.912C48.7318 13.5532 48.5652 14.4958 48.4201 15.3208C48.3577 15.6758 48.2661 16.1929 48.2168 16.47C48.1021 17.1133 48.0273 17.5654 48.0273 17.6133C48.0273 17.6421 48.7509 17.6508 51.1401 17.6508H54.253L54.3068 17.3123C54.3362 17.1261 54.408 16.6975 54.4662 16.3598C54.5243 16.0221 54.6151 15.4908 54.6676 15.1791C54.7201 14.8673 54.8129 14.3218 54.8737 13.9668C54.9342 13.6118 55.0343 13.0238 55.0956 12.6601C55.1572 12.2964 55.2506 11.7438 55.3033 11.4321C55.356 11.1203 55.4468 10.589 55.5048 10.2513C55.5629 9.91359 55.6344 9.48851 55.6637 9.30667C55.7322 8.88109 55.7505 8.8507 55.8129 9.06001C55.8402 9.15238 55.9785 9.56093 56.1197 9.9679C56.261 10.3749 56.4164 10.8283 56.4651 10.9755C56.5136 11.1227 56.6134 11.4061 56.6866 11.6053C56.7599 11.8044 56.8384 12.0311 56.8611 12.109C56.8839 12.187 56.9758 12.4562 57.0656 12.7073C57.1553 12.9584 57.2475 13.2276 57.2702 13.3056C57.2932 13.3835 57.3914 13.674 57.4884 13.9511C57.5856 14.2281 57.7345 14.6603 57.8192 14.9114C57.9039 15.1625 58.0458 15.5734 58.1346 15.8245C58.2233 16.0757 58.3149 16.3449 58.3378 16.4228C58.3608 16.5007 58.4638 16.8054 58.5666 17.0998L58.7538 17.6351L61.7949 17.6431L64.8363 17.6511L64.8679 17.5014C64.8852 17.4191 64.922 17.2171 64.9498 17.0525C64.9775 16.888 65.0417 16.5196 65.0928 16.2339C65.144 15.9481 65.2371 15.4239 65.2999 15.0688C65.3627 14.7138 65.4611 14.1612 65.5187 13.8409C65.576 13.5205 65.668 13.0033 65.7229 12.6916C65.7779 12.3798 65.87 11.8627 65.9278 11.5423C65.9856 11.2219 66.0777 10.7047 66.1327 10.393C66.1876 10.0813 66.2796 9.56407 66.3369 9.2437C66.5269 8.1823 66.6639 7.40853 66.7631 6.83491C66.8171 6.52319 66.9086 6.00601 66.9666 5.68563C67.0246 5.36524 67.1171 4.84807 67.1723 4.53635C67.2274 4.22463 67.3194 3.70744 67.3767 3.38706C67.4341 3.06667 67.5327 2.51406 67.5959 2.15906C67.6591 1.80403 67.7522 1.29394 67.8032 1.02551C67.8541 0.757077 67.8957 0.512672 67.8957 0.482349C67.8957 0.430238 67.7265 0.427246 64.7811 0.427246H61.6665L61.6351 0.576812C61.5786 0.847224 61.4482 1.53544 61.3474 2.09607C61.2928 2.39914 61.1986 2.91632 61.1381 3.24537C60.8569 4.77023 60.807 5.04273 60.7161 5.54394C60.6627 5.83835 60.571 6.34135 60.512 6.66173C60.3569 7.50525 60.2232 8.23969 60.1627 8.58246C60.094 8.97132 60.0721 9.01044 60.0228 8.83273C60.0015 8.75571 59.9393 8.56514 59.8843 8.40928C59.8294 8.25342 59.7427 7.99362 59.6918 7.83194C59.6406 7.67028 59.0675 5.94163 58.4181 3.99048L57.2372 0.442991L54.149 0.434961C52.4505 0.430552 51.0513 0.43644 51.0396 0.448092ZM41.4288 6.56726C41.4407 7.09548 41.4779 8.29678 41.5113 9.23684C41.5449 10.1769 41.5723 11.0448 41.5723 11.1654V11.3848H40.3129C39.6201 11.3848 39.0534 11.3799 39.0534 11.3739C39.0534 11.3619 39.1691 11.0464 39.3671 10.5189C39.4385 10.3284 39.5305 10.0805 39.5714 9.9679C39.8173 9.29131 39.8688 9.15264 39.9175 9.03904C39.9473 8.96975 39.9978 8.83514 40.0298 8.73989C40.0618 8.64465 40.1304 8.45337 40.1821 8.31482C40.234 8.17628 40.3258 7.92831 40.3862 7.7638C40.4934 7.4716 40.5492 7.32268 40.816 6.6145C40.8879 6.424 40.9796 6.17605 41.0199 6.06348C41.0601 5.95091 41.1457 5.71712 41.2096 5.54394C41.2738 5.37075 41.3356 5.20072 41.3469 5.16609C41.3787 5.06788 41.4049 5.5151 41.4288 6.56726ZM90.0336 5.63975C90.5962 5.73188 91.0975 6.04788 91.398 6.49971C91.5807 6.77456 91.6437 6.92434 91.7526 7.34351C91.8355 7.66237 91.8413 7.72589 91.8405 8.29908C91.8395 8.87668 91.8337 8.9383 91.7397 9.33816C91.5399 10.1885 91.1812 10.8791 90.6453 11.4443C90.2322 11.8802 89.7649 12.1877 89.2421 12.3677C88.9529 12.4671 88.9308 12.4699 88.4098 12.4705C87.9 12.4711 87.8628 12.4669 87.6281 12.3819C87.2703 12.2522 87.0242 12.0956 86.7554 11.8269C86.4688 11.5404 86.2955 11.2542 86.1545 10.8338L86.0488 10.5189L86.0486 9.87344C86.0482 9.31164 86.0577 9.1855 86.1215 8.90053C86.3328 7.95681 86.7137 7.19038 87.251 6.62742C88.0457 5.79502 88.9726 5.46604 90.0336 5.63975Z" fill="#E4F8EF"/>
<path fill-rule="evenodd" clip-rule="evenodd" d="M54.987 19.7898C54.1686 19.9527 53.6238 20.2673 53.0885 20.8864C52.8162 21.2015 52.5931 21.6462 52.4957 22.0678C52.4049 22.4611 52.3981 23.04 52.4796 23.4218C52.6905 24.4083 53.4101 25.2362 54.3688 25.595C54.6276 25.6918 54.7622 25.7216 55.0814 25.7521C56.052 25.8451 56.8736 25.5612 57.5405 24.9021C58.131 24.3187 58.4171 23.6256 58.4184 22.7764C58.4196 21.9543 58.1382 21.2593 57.5768 20.6972C57.2723 20.3923 57.0845 20.2527 56.7511 20.0828C56.3569 19.8818 56.0027 19.7982 55.4907 19.785C55.2569 19.779 55.0303 19.7812 54.987 19.7898ZM93.0079 19.7893C92.3861 19.8861 91.7747 20.1828 91.3541 20.5919C90.804 21.127 90.4949 21.7553 90.4417 22.4458C90.3594 23.5162 90.6432 24.275 91.389 24.9788C91.629 25.2052 91.982 25.4499 92.1503 25.5064C92.2064 25.5251 92.2664 25.5513 92.2837 25.5642C92.3674 25.6272 92.7709 25.7199 93.1066 25.7536C93.896 25.8326 94.6607 25.6232 95.2389 25.1694C95.4661 24.9913 95.801 24.6341 95.9326 24.4294C96.2618 23.9182 96.3908 23.5103 96.4153 22.902C96.4321 22.4902 96.4097 22.3105 96.2862 21.8632C96.1781 21.4724 95.8458 20.951 95.4921 20.6177C94.8944 20.0545 94.3086 19.8085 93.5116 19.7861C93.2865 19.7798 93.0599 19.7812 93.0079 19.7893ZM48.1543 22.7581V25.7206H48.8313H49.5082V24.8731V24.0259L50.1144 24.0126C50.6658 24.0004 50.7406 23.9919 50.9437 23.9188C51.6623 23.6599 52.2071 23.0426 52.327 22.3514C52.3846 22.0193 52.3848 21.8441 52.3278 21.4963C52.2079 20.765 51.5891 20.1064 50.8149 19.8857C50.6163 19.8291 50.4736 19.8216 49.3744 19.8093L48.1543 19.7957V22.7581ZM58.4819 22.7577V25.7206H59.1589H59.8361V24.8073V23.8941H59.9792C60.1072 23.8941 60.1279 23.9046 60.176 23.9929C60.2054 24.0472 60.2728 24.1501 60.3253 24.2213C60.378 24.2926 60.496 24.4713 60.5873 24.6184C60.6789 24.7657 60.8008 24.9568 60.8586 25.0434C60.9164 25.1301 61.0393 25.3179 61.1317 25.4608L61.2997 25.7206H62.1272H62.9549L62.9058 25.6338C62.879 25.5863 62.7585 25.3986 62.6384 25.2166C62.5182 25.0347 62.3496 24.7727 62.2635 24.6341C62.1775 24.4956 62.0771 24.3396 62.0403 24.2877C62.0037 24.2358 61.8918 24.0652 61.7917 23.9084L61.6096 23.6234L61.8087 23.4914C62.1417 23.27 62.4591 22.7865 62.5462 22.3671C62.5979 22.1171 62.5983 21.6336 62.5468 21.3595C62.4228 20.7002 61.8155 20.1071 61.0456 19.8932C60.8151 19.8292 60.7087 19.8228 59.6393 19.8095L58.4819 19.795V22.7577ZM62.9847 20.4778V21.1548H63.6933H64.4016V23.4377V25.7206H65.0943H65.7872V23.4377V21.1548H66.4798H67.1725V20.4778V19.8008H65.0786H62.9847V20.4778ZM75.3038 21.7609C75.3155 23.6858 75.3171 23.7259 75.3877 23.9887C75.6248 24.8687 76.3988 25.5992 77.2404 25.7371C78.3766 25.9234 79.326 25.4752 79.8676 24.4972C80.1302 24.0231 80.1247 24.0766 80.137 21.8082L80.1479 19.8008H79.454H78.7599V21.7155V23.6299L78.6746 23.8011C78.5688 24.0136 78.3524 24.2278 78.1476 24.3227C77.6394 24.5586 77.0592 24.3356 76.7697 23.7933L76.6974 23.658L76.6888 21.7294L76.6799 19.8008H75.986H75.292L75.3038 21.7609ZM80.7122 20.4778V21.1548H81.4048H82.0975V23.4377V25.7206H82.7902H83.483V23.4377V21.1548H84.1757H84.8684V20.4778V19.8008H82.7902H80.7122V20.4778ZM85.4353 22.7607V25.7206H86.1122H86.7892V24.587V23.4534H87.6393H88.4895V24.587V25.7206H89.1665H89.8434V22.7607V19.8008H89.1665H88.4895V20.9502V22.0994H87.6393H86.7892V20.9502V19.8008H86.1122H85.4353V22.7607ZM96.9911 22.7579V25.7206H97.6675H98.344L98.3525 24.8152L98.3607 23.91L98.5036 23.9005C98.6429 23.8915 98.6485 23.8949 98.7208 24.0265C98.7616 24.101 98.82 24.1901 98.8504 24.2247C98.8809 24.2593 98.9816 24.4095 99.0741 24.5582C99.1667 24.7069 99.2838 24.891 99.3345 24.9675C99.3852 25.044 99.5179 25.2446 99.6294 25.4135L99.8318 25.7206H100.647C101.095 25.7206 101.462 25.7099 101.462 25.6968C101.462 25.6839 101.409 25.5942 101.344 25.4978C101.279 25.4012 101.106 25.1339 100.958 24.9037C100.696 24.4942 100.533 24.2414 100.266 23.8319L100.133 23.6281L100.207 23.5802C100.663 23.2811 100.979 22.8261 101.071 22.3355C101.125 22.0481 101.125 21.6724 101.07 21.3651C100.974 20.8304 100.469 20.2454 99.8849 19.9952C99.5245 19.8408 99.37 19.8242 98.1482 19.8095L96.9911 19.7955V22.7579ZM101.777 22.7607V25.7206H102.47H103.163V22.7607V19.8008H102.47H101.777V22.7607ZM103.698 20.4778V21.1548H104.406H105.115V23.4377V25.7206H105.792H106.468L106.476 23.4455L106.484 21.1705L107.185 21.1621L107.886 21.1536V20.4772V19.8008H105.792H103.698V20.4778ZM108.012 19.8161C108.012 19.8246 108.077 19.9485 108.157 20.0917C108.236 20.2347 108.355 20.4511 108.42 20.5722C108.634 20.9691 109.339 22.2689 109.427 22.4301C109.501 22.5651 109.595 22.7378 109.795 23.107C109.829 23.1694 109.837 23.4477 109.838 24.4531L109.838 25.7206H110.531H111.223V24.461V23.2016L111.345 22.9732C111.412 22.8476 111.8 22.1276 112.207 21.3732C112.614 20.6189 112.971 19.9564 112.999 19.9012L113.051 19.8008H112.263C111.758 19.8008 111.475 19.8121 111.475 19.8324C111.475 19.8497 111.291 20.2132 111.066 20.64C110.841 21.0669 110.657 21.4231 110.657 21.4313C110.657 21.4396 110.626 21.4963 110.588 21.5571L110.52 21.6676L110.452 21.5293C110.391 21.4031 110.311 21.2508 109.875 20.4305C109.797 20.2834 109.691 20.0815 109.641 19.9819L109.549 19.8008H108.781C108.358 19.8008 108.012 19.8077 108.012 19.8161ZM72.48 19.9512C72.449 20.0157 71.8572 21.287 71.1647 22.7764C70.4723 24.2658 69.8937 25.499 69.8792 25.5169C69.8645 25.5348 69.8379 25.5877 69.82 25.6348L69.7876 25.7206H70.5193H71.2513L71.4473 25.3269L71.6435 24.9333H72.5493H73.4552L73.64 25.3269L73.8249 25.7206H74.5602H75.2956L75.2213 25.5551C75.1805 25.4642 74.7645 24.5681 74.2968 23.5637C73.3462 21.5219 73.3552 21.5412 72.9966 20.7769C72.8543 20.4738 72.7115 20.1645 72.6791 20.0896C72.6465 20.0147 72.6012 19.9265 72.578 19.8936C72.539 19.8376 72.5327 19.8411 72.48 19.9512ZM50.5629 21.223C50.9507 21.4343 51.1204 21.8732 50.9487 22.2198C50.7716 22.577 50.571 22.6661 49.9433 22.6661H49.5082V21.9077V21.1492L49.9884 21.1602C50.3575 21.1689 50.4903 21.1834 50.5629 21.223ZM56.1063 21.2965C56.5907 21.5424 56.9368 21.9916 57.0356 22.5025C57.1222 22.9511 56.9733 23.4614 56.6539 23.81C56.3897 24.0984 56.2091 24.2205 55.9063 24.3157C55.1154 24.5646 54.2895 24.2008 53.9309 23.4457C53.5652 22.6756 53.8699 21.7781 54.6495 21.3289C54.9065 21.1808 55.0311 21.1552 55.4619 21.1633C55.8556 21.1705 55.8596 21.1713 56.1063 21.2965ZM60.8179 21.2585C61.0675 21.381 61.19 21.5666 61.19 21.8225C61.19 22.1316 61.0522 22.3621 60.7964 22.4806C60.6942 22.5279 60.592 22.5389 60.2533 22.5395L59.8361 22.5402V21.8686C59.8361 21.4991 59.8466 21.186 59.8596 21.1729C59.8725 21.1598 60.0532 21.1538 60.2611 21.1598C60.5986 21.1695 60.658 21.18 60.8179 21.2585ZM94.0942 21.2846C94.412 21.4351 94.7251 21.7487 94.8984 22.0898L95.0232 22.3355V22.7607C95.0232 23.1763 95.0208 23.1906 94.9191 23.4055C94.7726 23.7146 94.5951 23.9309 94.3514 24.0971C94.0206 24.3227 93.8278 24.3811 93.4173 24.3799C92.8773 24.3785 92.591 24.2537 92.2183 23.8571C92.0052 23.6303 91.9235 23.4884 91.8542 23.2244C91.655 22.4651 91.9645 21.7235 92.6407 21.34C92.9283 21.1767 93.0301 21.155 93.4644 21.1643C93.8419 21.1723 93.8678 21.1774 94.0942 21.2846ZM99.3376 21.251C99.6378 21.4056 99.7656 21.6766 99.6956 22.0109C99.6664 22.1495 99.632 22.2059 99.4939 22.3411C99.2981 22.5325 99.2323 22.5488 98.7071 22.5341L98.3607 22.5245L98.3523 21.8799C98.3475 21.5253 98.3511 21.2158 98.3603 21.1918C98.3736 21.1574 98.4589 21.1508 98.7791 21.1594C99.1361 21.1693 99.1987 21.1796 99.3376 21.251ZM72.7489 23.4473C72.7698 23.5113 72.8149 23.6174 72.8489 23.683C72.8831 23.7486 72.904 23.8094 72.8956 23.8178C72.8871 23.8265 72.7231 23.8293 72.5313 23.8245L72.1826 23.8154L72.3406 23.4534C72.4275 23.2542 72.507 23.064 72.5173 23.0304C72.5317 22.9827 72.5545 23.0082 72.6231 23.1503C72.6712 23.2499 72.7277 23.3835 72.7489 23.4473Z" fill="#E4F8EF"/>
<path d="M7.47323 7.26702L7.48454 7.12501C7.49358 7.01151 7.50624 6.98577 7.54767 6.99686C7.57621 7.00449 7.73414 7.03409 7.89866 7.0626C8.90755 7.2377 10.0674 7.70806 10.9961 8.31873C12.5084 9.31318 13.7052 10.7777 14.4221 12.5112C15.1425 14.2531 15.315 16.3551 14.8847 18.1474C14.7799 18.584 14.5406 19.3308 14.4437 19.5237C14.4114 19.588 14.3851 19.6562 14.3851 19.6754C14.3851 19.7211 13.9396 20.6151 13.8583 20.7326C13.8236 20.7827 13.72 20.9443 13.6282 21.0914C13.5365 21.2387 13.453 21.3663 13.4429 21.375C13.4327 21.3836 13.3407 21.504 13.2385 21.6426C12.3428 22.8563 10.9633 23.915 9.50451 24.5079C8.99864 24.7134 8.16782 24.9422 7.50507 25.0583C7.081 25.1327 5.18837 25.1354 5.06928 25.0617C5.04235 25.045 5.05718 24.8794 5.12605 24.4272C5.1773 24.0905 5.24337 23.6381 5.27287 23.4216C5.30235 23.2051 5.33491 23.0185 5.3452 23.0068C5.3555 22.9954 5.60377 23.0004 5.8969 23.0181C7.39588 23.1089 8.6464 22.8426 9.9439 22.1568C10.573 21.8241 11.0893 21.445 11.6151 20.9292C12.1609 20.3939 12.3093 20.2201 12.6583 19.7061C12.9941 19.2115 13.1182 18.9847 13.4419 18.2734C13.5362 18.066 13.7137 17.5144 13.8209 17.0953C14.0287 16.2828 14.1206 15.1602 14.0401 14.4162C13.9633 13.7057 13.9359 13.5405 13.8203 13.09C13.752 12.8236 13.6598 12.5144 13.6155 12.4029C13.5712 12.2914 13.5349 12.189 13.5349 12.1753C13.5349 12.0764 13.0912 11.2078 12.8139 10.7637C12.3919 10.0881 11.6434 9.25967 11.0356 8.79571C10.4732 8.36632 9.66979 7.90606 9.11048 7.69287C8.63353 7.51105 7.95613 7.32601 7.61513 7.28435L7.47323 7.26702Z" fill="#E4F8EF"/>
<path d="M7.08694 9.23181C7.10276 9.08461 7.13242 8.86858 7.15289 8.75172L7.1901 8.53931L7.36793 8.5576C7.60749 8.58229 8.20248 8.73855 8.56912 8.87314C9.20393 9.1061 9.9523 9.52939 10.4584 9.94171C10.684 10.1256 11.355 10.8038 11.5318 11.0266C11.8624 11.4435 12.4096 12.4059 12.4986 12.7269C12.5154 12.7875 12.5596 12.9132 12.5968 13.0062C12.7394 13.3622 12.8871 14.1013 12.9151 14.5993C12.9453 15.1371 12.9078 15.9483 12.8385 16.2535C12.813 16.366 12.7645 16.5786 12.7308 16.7258C12.5982 17.305 12.319 17.9655 11.9455 18.5835C11.7692 18.8752 11.7 18.9696 11.4142 19.3078C10.6762 20.1811 9.81284 20.8154 8.79708 21.2302C7.781 21.6452 6.54701 21.814 5.50698 21.6804L5.35742 21.6611V21.5311V21.4011L5.90598 21.4123C6.63387 21.427 7.07444 21.3831 7.55396 21.2483C8.56286 20.9644 9.35134 20.4908 10.0696 19.7378C11.0337 18.7269 11.5407 17.4377 11.5388 16.0016C11.537 14.5704 11.0183 13.2868 10.0216 12.2475C9.23414 11.4263 8.29883 10.928 7.08135 10.681H7.08131C6.90033 10.6443 6.90029 10.6443 6.90061 10.5284C6.90077 10.4647 6.93627 10.2071 6.97954 9.95602C7.02281 9.70491 7.07114 9.379 7.08694 9.23181Z" fill="#E4F8EF"/>
<path d="M7.97055 17.8681L7.95926 18.0101C7.95023 18.1236 7.93757 18.1494 7.89613 18.1383C7.8676 18.1307 7.70966 18.1011 7.54513 18.0726C6.53625 17.8974 5.37634 17.4271 4.44766 16.8164C2.93536 15.822 1.73856 14.3575 1.02166 12.624C0.301319 10.8821 0.128799 8.78004 0.559105 6.98771C0.663927 6.55112 0.9032 5.8044 1.00008 5.61141C1.03236 5.54713 1.05875 5.47893 1.05875 5.4598C1.05875 5.41401 1.50417 4.51996 1.5855 4.40252C1.62023 4.35235 1.72376 4.19086 1.81554 4.04365C1.90733 3.89644 1.99077 3.76894 2.00094 3.76026C2.01111 3.75161 2.10308 3.63117 2.20529 3.49263C3.10096 2.27879 4.4805 1.22018 5.93927 0.627341C6.44515 0.421759 7.27597 0.193006 7.93872 0.0768179C8.36279 0.00247664 10.2554 -0.000107336 10.3745 0.0734785C10.4014 0.0901354 10.3866 0.255855 10.3178 0.708012C10.2665 1.04461 10.2004 1.49712 10.1709 1.71359C10.1415 1.93007 10.1089 2.11665 10.0986 2.12824C10.0883 2.13983 9.84003 2.1348 9.54691 2.11707C8.04793 2.02636 6.7974 2.29252 5.4999 2.9784C4.87079 3.31097 4.35453 3.69015 3.82868 4.20591C3.28286 4.74125 3.13455 4.91516 2.78553 5.42909C2.44966 5.9237 2.32564 6.15047 2.00192 6.86178C1.90758 7.06912 1.73009 7.62074 1.6229 8.03984C1.41506 8.85233 1.32321 9.97494 1.40369 10.719C1.48055 11.4294 1.50791 11.5946 1.62347 12.0451C1.69183 12.3115 1.78399 12.6207 1.82833 12.7323C1.87263 12.8438 1.9089 12.9462 1.9089 12.9599C1.9089 13.0588 2.35259 13.9274 2.62994 14.3715C3.05186 15.047 3.80041 15.8755 4.40814 16.3395C4.9706 16.7688 5.77399 17.2291 6.33332 17.4423C6.81028 17.6241 7.48768 17.8091 7.82868 17.8508L7.97055 17.8681Z" fill="#E4F8EF"/>
<path d="M8.35824 15.9033C8.34244 16.0505 8.31278 16.2665 8.29232 16.3834L8.25511 16.5958L8.07725 16.5775C7.83769 16.5528 7.24271 16.3966 6.87609 16.262C6.24125 16.029 5.4929 15.6057 4.98684 15.1934C4.76119 15.0095 4.09018 14.3313 3.91343 14.1085C3.58279 13.6916 3.03558 12.7292 2.94665 12.4082C2.92982 12.3476 2.88563 12.2219 2.8484 12.1289C2.7058 11.7729 2.55813 11.0338 2.5301 10.5358C2.49983 9.99803 2.53741 9.18679 2.60667 8.88161C2.63221 8.76906 2.68071 8.55651 2.71436 8.40932C2.84695 7.83011 3.12615 7.1696 3.4997 6.55157C3.67596 6.25993 3.74523 6.16549 4.03097 5.82735C4.76898 4.95397 5.63236 4.31974 6.6481 3.90486C7.6642 3.48986 8.89819 3.32102 9.93822 3.45474L10.0878 3.47398V3.604V3.73405L9.53922 3.72286C8.81131 3.70805 8.37074 3.75186 7.89122 3.88683C6.88235 4.17078 6.09387 4.64422 5.37562 5.3973C4.4115 6.40817 3.90453 7.69737 3.90634 9.13352C3.90817 10.5647 4.42693 11.8483 5.42363 12.8876C6.21107 13.7087 7.14637 14.2071 8.36386 14.4541H8.36388C8.54487 14.4908 8.54491 14.4908 8.54459 14.6067C8.54443 14.6704 8.50891 14.928 8.46564 15.1791C8.4224 15.4302 8.37406 15.7561 8.35824 15.9033Z" fill="#E4F8EF"/>
</g>
<defs>
<clipPath id="clip0_93_466">
<rect width="112.896" height="25.96" fill="white" transform="translate(0.28125)"/>
</clipPath>
</defs>
</svg>
